<svg width="21" height="22" viewBox="0 0 21 22" fill="none" xmlns="http://www.w3.org/2000/svg">
<path d="M17.2857 12.4286V11C17.2857 10.6211 17.1427 10.2578 16.8882 9.98985C16.6337 9.72194 16.2885 9.57143 15.9286 9.57143H2.35714C1.99721 9.57143 1.65201 9.72194 1.3975 9.98985C1.14298 10.2578 1 10.6211 1 11V19.5714C1 19.9503 1.14298 20.3137 1.3975 20.5816C1.65201 20.8495 1.99721 21 2.35714 21H15.9286C16.2885 21 16.6337 20.8495 16.8882 20.5816C17.1427 20.3137 17.2857 19.9503 17.2857 19.5714V18.1429M17.2857 12.4286V18.1429M17.2857 12.4286H11.8571C11.1373 12.4286 10.4469 12.7296 9.93785 13.2654C9.42883 13.8012 9.14286 14.528 9.14286 15.2857C9.14286 16.0435 9.42883 16.7702 9.93785 17.306C10.4469 17.8418 11.1373 18.1429 11.8571 18.1429H17.2857M17.2857 12.4286C18.0056 12.4286 18.696 12.7296 19.205 13.2654C19.714 13.8012 20 14.528 20 15.2857C20 16.0435 19.714 16.7702 19.205 17.306C18.696 17.8418 18.0056 18.1429 17.2857 18.1429M16.6071 15.2857H17.9643M13.8929 15.2857H15.25M11.1786 15.2857H12.5357M5.07143 9.57143V5.28571C5.07143 4.14907 5.50038 3.05898 6.26392 2.25526C7.02746 1.45153 8.06305 1 9.14286 1C10.2227 1 11.2583 1.45153 12.0218 2.25526C12.7853 3.05898 13.2143 4.14907 13.2143 5.28571V9.57143H5.07143Z" stroke="#121212" stroke-opacity="0.5" stroke-width="1.5"/>
</svg>
