<svg width="20" height="15" viewBox="0 0 20 15" fill="none" xmlns="http://www.w3.org/2000/svg">
<path d="M10.0135 8.29663L3.18964 14.6696C2.71799 15.1101 1.95532 15.1101 1.48868 14.6696L0.354715 13.6106C-0.116936 13.1701 -0.116936 12.4578 0.354715 12.022L5.19164 7.50469L0.354715 2.98735C-0.116936 2.54686 -0.116936 1.83458 0.354715 1.39878L1.48367 0.330366C1.95532 -0.110122 2.71799 -0.110122 3.18462 0.330366L10.0085 6.70337C10.4852 7.14386 10.4852 7.85614 10.0135 8.29663ZM19.6472 6.70337L12.8234 0.330366C12.3517 -0.110122 11.589 -0.110122 11.1224 0.330366L9.98843 1.38941C9.51678 1.8299 9.51678 2.54217 9.98843 2.97798L14.8254 7.49531L9.98843 12.0127C9.51678 12.4531 9.51678 13.1654 9.98843 13.6012L11.1224 14.6603C11.5941 15.1007 12.3567 15.1007 12.8234 14.6603L19.6472 8.28725C20.1189 7.85614 20.1189 7.14386 19.6472 6.70337Z" fill="#FAF8F9"/>
</svg>
