<svg width="18" height="18" viewBox="0 0 18 18" fill="none" xmlns="http://www.w3.org/2000/svg">
<path d="M9.31292 10.1124C12.0091 10.1124 14.1966 7.92494 14.1966 5.22875C14.1966 2.53257 12.0091 0.345093 9.31292 0.345093C6.61674 0.345093 4.42926 2.53257 4.42926 5.22875C4.42926 7.92494 6.61674 10.1124 9.31292 10.1124ZM13.654 11.1977H11.7853C11.0324 11.5436 10.1947 11.7403 9.31292 11.7403C8.43115 11.7403 7.59686 11.5436 6.84057 11.1977H4.97189C2.57415 11.1977 0.630859 13.141 0.630859 15.5387V16.0813C0.630859 16.9801 1.36002 17.7092 2.25875 17.7092H16.3671C17.2658 17.7092 17.995 16.9801 17.995 16.0813V15.5387C17.995 13.141 16.0517 11.1977 13.654 11.1977Z" fill="#FAF8F9"/>
</svg>
