<svg width="163" height="50" viewBox="0 0 163 50" fill="none" xmlns="http://www.w3.org/2000/svg">
<path d="M76.328 15.456V29.176C76.328 31.08 75.7773 32.564 74.676 33.628C73.5747 34.6733 72.1 35.196 70.252 35.196C68.3853 35.196 66.8733 34.6547 65.716 33.572C64.5773 32.4893 64.008 30.9773 64.008 29.036H67.928C67.9467 29.876 68.1427 30.5293 68.516 30.996C68.908 31.4627 69.468 31.696 70.196 31.696C70.9053 31.696 71.4467 31.472 71.82 31.024C72.1933 30.576 72.38 29.96 72.38 29.176V15.456H76.328ZM92.8848 31.276H85.1008L83.8128 35H79.6968L86.7248 15.428H91.2888L98.3168 35H94.1728L92.8848 31.276ZM91.8208 28.14L88.9928 19.964L86.1647 28.14H91.8208ZM99.9917 25.2C99.9917 23.2773 100.421 21.56 101.28 20.048C102.157 18.5173 103.342 17.332 104.836 16.492C106.348 15.6333 108.037 15.204 109.904 15.204C112.088 15.204 114.001 15.764 115.644 16.884C117.286 18.004 118.434 19.5533 119.088 21.532H114.58C114.132 20.5987 113.497 19.8987 112.676 19.432C111.873 18.9653 110.94 18.732 109.876 18.732C108.737 18.732 107.72 19.0027 106.824 19.544C105.946 20.0667 105.256 20.8133 104.752 21.784C104.266 22.7547 104.024 23.8933 104.024 25.2C104.024 26.488 104.266 27.6267 104.752 28.616C105.256 29.5867 105.946 30.3427 106.824 30.884C107.72 31.4067 108.737 31.668 109.876 31.668C110.94 31.668 111.873 31.4347 112.676 30.968C113.497 30.4827 114.132 29.7733 114.58 28.84H119.088C118.434 30.8373 117.286 32.396 115.644 33.516C114.02 34.6173 112.106 35.168 109.904 35.168C108.037 35.168 106.348 34.748 104.836 33.908C103.342 33.0493 102.157 31.864 101.28 30.352C100.421 28.84 99.9917 27.1227 99.9917 25.2ZM131.508 35.196C129.679 35.196 127.999 34.7667 126.468 33.908C124.937 33.0493 123.724 31.864 122.828 30.352C121.932 28.8213 121.484 27.0947 121.484 25.172C121.484 23.268 121.932 21.56 122.828 20.048C123.724 18.5173 124.937 17.3227 126.468 16.464C127.999 15.6053 129.679 15.176 131.508 15.176C133.356 15.176 135.036 15.6053 136.548 16.464C138.079 17.3227 139.283 18.5173 140.16 20.048C141.056 21.56 141.504 23.268 141.504 25.172C141.504 27.0947 141.056 28.8213 140.16 30.352C139.283 31.864 138.079 33.0493 136.548 33.908C135.017 34.7667 133.337 35.196 131.508 35.196ZM131.508 31.696C132.684 31.696 133.72 31.4347 134.616 30.912C135.512 30.3707 136.212 29.6053 136.716 28.616C137.22 27.6267 137.472 26.4787 137.472 25.172C137.472 23.8653 137.22 22.7267 136.716 21.756C136.212 20.7667 135.512 20.0107 134.616 19.488C133.72 18.9653 132.684 18.704 131.508 18.704C130.332 18.704 129.287 18.9653 128.372 19.488C127.476 20.0107 126.776 20.7667 126.272 21.756C125.768 22.7267 125.516 23.8653 125.516 25.172C125.516 26.4787 125.768 27.6267 126.272 28.616C126.776 29.6053 127.476 30.3707 128.372 30.912C129.287 31.4347 130.332 31.696 131.508 31.696ZM148.34 31.892H154.78V35H144.42V15.456H148.34V31.892Z" fill="#121212"/>
<circle cx="25" cy="25" r="25" fill="#121212"/>
<path d="M23.792 24.552C23.792 22.888 24.152 21.408 24.872 20.112C25.592 18.8 26.592 17.784 27.872 17.064C29.168 16.328 30.632 15.96 32.264 15.96C34.264 15.96 35.976 16.488 37.4 17.544C38.824 18.6 39.776 20.04 40.256 21.864H35.744C35.408 21.16 34.928 20.624 34.304 20.256C33.696 19.888 33 19.704 32.216 19.704C30.952 19.704 29.928 20.144 29.144 21.024C28.36 21.904 27.968 23.08 27.968 24.552C27.968 26.024 28.36 27.2 29.144 28.08C29.928 28.96 30.952 29.4 32.216 29.4C33 29.4 33.696 29.216 34.304 28.848C34.928 28.48 35.408 27.944 35.744 27.24H40.256C39.776 29.064 38.824 30.504 37.4 31.56C35.976 32.6 34.264 33.12 32.264 33.12C30.632 33.12 29.168 32.76 27.872 32.04C26.592 31.304 25.592 30.288 24.872 28.992C24.152 27.696 23.792 26.216 23.792 24.552Z" fill="#FAF8F9"/>
<path d="M21.048 16.152V27.624C21.048 29.4 20.544 30.768 19.536 31.728C18.544 32.688 17.2 33.168 15.504 33.168C13.728 33.168 12.304 32.664 11.232 31.656C10.16 30.648 9.624 29.216 9.624 27.36H13.704C13.704 28.064 13.848 28.6 14.136 28.968C14.424 29.32 14.84 29.496 15.384 29.496C15.88 29.496 16.264 29.336 16.536 29.016C16.808 28.696 16.944 28.232 16.944 27.624V16.152H21.048Z" fill="#FAF8F9"/>
</svg>
