<svg width="50" height="50" viewBox="0 0 50 50" fill="none" xmlns="http://www.w3.org/2000/svg">
<circle cx="25" cy="25" r="25" fill="#121212"/>
<path d="M23.792 24.552C23.792 22.888 24.152 21.408 24.872 20.112C25.592 18.8 26.592 17.784 27.872 17.064C29.168 16.328 30.632 15.96 32.264 15.96C34.264 15.96 35.976 16.488 37.4 17.544C38.824 18.6 39.776 20.04 40.256 21.864H35.744C35.408 21.16 34.928 20.624 34.304 20.256C33.696 19.888 33 19.704 32.216 19.704C30.952 19.704 29.928 20.144 29.144 21.024C28.36 21.904 27.968 23.08 27.968 24.552C27.968 26.024 28.36 27.2 29.144 28.08C29.928 28.96 30.952 29.4 32.216 29.4C33 29.4 33.696 29.216 34.304 28.848C34.928 28.48 35.408 27.944 35.744 27.24H40.256C39.776 29.064 38.824 30.504 37.4 31.56C35.976 32.6 34.264 33.12 32.264 33.12C30.632 33.12 29.168 32.76 27.872 32.04C26.592 31.304 25.592 30.288 24.872 28.992C24.152 27.696 23.792 26.216 23.792 24.552Z" fill="#FAF8F9"/>
<path d="M21.048 16.152V27.624C21.048 29.4 20.544 30.768 19.536 31.728C18.544 32.688 17.2 33.168 15.504 33.168C13.728 33.168 12.304 32.664 11.232 31.656C10.16 30.648 9.624 29.216 9.624 27.36H13.704C13.704 28.064 13.848 28.6 14.136 28.968C14.424 29.32 14.84 29.496 15.384 29.496C15.88 29.496 16.264 29.336 16.536 29.016C16.808 28.696 16.944 28.232 16.944 27.624V16.152H21.048Z" fill="#FAF8F9"/>
</svg>
