<svg width="21" height="21" viewBox="0 0 21 21" fill="none" xmlns="http://www.w3.org/2000/svg">
<path d="M4.11522 0C1.85217 0 0 1.85213 0 4.11522V16.8855C0 19.1485 1.85213 21 4.11522 21H16.8855C19.1485 21 21 19.1485 21 16.8855V4.11522C21 1.85217 19.1485 0 16.8855 0H4.11522ZM5.15025 3.46542C6.23534 3.46542 6.9037 4.17776 6.92433 5.11412C6.92433 6.0298 6.23529 6.76216 5.12927 6.76216H5.10891C4.04448 6.76216 3.35649 6.02985 3.35649 5.11412C3.35649 4.17778 4.0653 3.46542 5.15023 3.46542H5.15025ZM14.501 7.84184C16.5878 7.84184 18.1522 9.2058 18.1522 12.1369V17.6087H14.9808V12.5037C14.9808 11.2209 14.5218 10.3457 13.3741 10.3457C12.4979 10.3457 11.9757 10.9356 11.7464 11.5055C11.6626 11.7093 11.642 11.9941 11.642 12.2793V17.6087H8.47065C8.47065 17.6087 8.51227 8.96105 8.47065 8.06563H11.6427V9.41703C12.0641 8.7668 12.818 7.84182 14.501 7.84182V7.84184ZM3.54356 8.06633H6.71495V17.6087H3.54356V8.06633V8.06633Z" fill="#121212" fill-opacity="0.75"/>
</svg>
