<svg width="24" height="18" viewBox="0 0 24 18" fill="none" xmlns="http://www.w3.org/2000/svg">
<path d="M21.75 0.875H2.25C1.81902 0.875 1.4057 1.0462 1.10095 1.35095C0.796205 1.6557 0.625 2.06902 0.625 2.5V15.5C0.625 15.931 0.796205 16.3443 1.10095 16.649C1.4057 16.9538 1.81902 17.125 2.25 17.125H21.75C22.181 17.125 22.5943 16.9538 22.899 16.649C23.2038 16.3443 23.375 15.931 23.375 15.5V2.5C23.375 2.06902 23.2038 1.6557 22.899 1.35095C22.5943 1.0462 22.181 0.875 21.75 0.875ZM19.9625 2.5L12 8.00875L4.0375 2.5H19.9625ZM2.25 15.5V3.23937L11.5369 9.66625C11.6729 9.7606 11.8345 9.81116 12 9.81116C12.1655 9.81116 12.3271 9.7606 12.4631 9.66625L21.75 3.23937V15.5H2.25Z" fill="#121212" fill-opacity="0.5"/>
</svg>
